<svg width="24" height="24" viewBox="0 0 24 24" fill="none" xmlns="http://www.w3.org/2000/svg">
    <path d="M11.5 20C10.3838 20 9.27846 19.7801 8.24719 19.353C7.21592 18.9258 6.27889 18.2997 5.48959 17.5104C4.70029 16.7211 4.07419 15.7841 3.64702 14.7528C3.21986 13.7215 3 12.6162 3 11.5C3 9.24566 3.89553 7.08365 5.48959 5.48959C7.08365 3.89553 9.24566 3 11.5 3C13.7543 3 15.9163 3.89553 17.5104 5.48959C19.1045 7.08365 20 9.24566 20 11.5M3.56676 8.66667H14.1548M19.4334 8.66667H14.1548M3.56676 14.3333H8.8608M11.0277 3C9.43663 5.54963 8.59311 8.49465 8.59311 11.5C8.59311 14.5053 9.43663 17.4504 11.0277 20M11.9722 3C13.0582 4.74021 13.7959 6.66461 14.1548 8.66667" stroke="currentColor" stroke-width="2" stroke-linecap="round" stroke-linejoin="round"/>
    <path d="M15.2812 20.5131C15.31 20.6425 15.3777 20.7601 15.4752 20.8499C15.5727 20.9397 15.6953 20.9976 15.8266 21.0158C15.958 21.0339 16.0917 21.0115 16.2099 20.9515C16.3281 20.8914 16.4252 20.7967 16.488 20.68L17.6201 19.0046L20.278 21.6625C20.3317 21.7162 20.3954 21.7588 20.4656 21.7878C20.5357 21.8169 20.6108 21.8318 20.6867 21.8318C20.7626 21.8318 20.8378 21.8169 20.9079 21.7878C20.978 21.7588 21.0418 21.7162 21.0954 21.6625L21.6625 21.0954C21.7162 21.0418 21.7588 20.978 21.7878 20.9079C21.8169 20.8378 21.8318 20.7626 21.8318 20.6867C21.8318 20.6108 21.8169 20.5357 21.7878 20.4656C21.7588 20.3954 21.7162 20.3317 21.6625 20.278L19.0046 17.6201L20.6908 16.488C20.8075 16.4251 20.9023 16.3281 20.9622 16.2098C21.0222 16.0915 21.0446 15.9578 21.0264 15.8264C21.0082 15.6951 20.9502 15.5725 20.8603 15.475C20.7704 15.3775 20.6529 15.3099 20.5234 15.2812L13.1665 13.1665L15.2812 20.5131Z" stroke="currentColor" stroke-width="2" stroke-linecap="round" stroke-linejoin="round"/>
</svg>
