<svg xmlns="http://www.w3.org/2000/svg" width="24" height="24" viewBox="0 0 24 24" fill="none">
    <path d="M19.0007 21C18.4703 21 17.9616 20.7893 17.5865 20.4142C17.2114 20.0391 17.0007 19.5304 17.0007 19C17.0007 18.4696 17.2114 17.9609 17.5865 17.5858C17.9616 17.2107 18.4703 17 19.0007 17M19.0007 21C19.5312 21 20.0399 20.7893 20.4149 20.4142C20.79 20.0391 21.0007 19.5304 21.0007 19C21.0007 18.4696 20.79 17.9609 20.4149 17.5858C20.0399 17.2107 19.5312 17 19.0007 17M19.0007 21V22.5M19.0007 17V15.5M22.0317 17.25L20.7327 18M17.2697 20L15.9697 20.75M15.9697 17.25L17.2697 18M20.7327 20L22.0327 20.75" stroke="currentColor" stroke-width="2" stroke-linecap="round" stroke-linejoin="round"/>
    <path d="M20 12V6C20 5.46957 19.7893 4.96086 19.4142 4.58579C19.0391 4.21071 18.5304 4 18 4H6C5.46957 4 4.96086 4.21071 4.58579 4.58579C4.21071 4.96086 4 5.46957 4 6V18C4 18.5304 4.21071 19.0391 4.58579 19.4142C4.96086 19.7893 5.46957 20 6 20H12M7 14L10 11L12 13L15 10L17 12" stroke="currentColor" stroke-width="2" stroke-linecap="round" stroke-linejoin="round"/>
</svg>
