<svg width="24" height="24" viewBox="0 0 24 24" fill="none" xmlns="http://www.w3.org/2000/svg">
    <path d="M6.5 7.5C6.5 7.76522 6.60536 8.01957 6.79289 8.20711C6.98043 8.39464 7.23478 8.5 7.5 8.5C7.76522 8.5 8.01957 8.39464 8.20711 8.20711C8.39464 8.01957 8.5 7.76522 8.5 7.5C8.5 7.23478 8.39464 6.98043 8.20711 6.79289C8.01957 6.60536 7.76522 6.5 7.5 6.5C7.23478 6.5 6.98043 6.60536 6.79289 6.79289C6.60536 6.98043 6.5 7.23478 6.5 7.5Z" stroke="currentColor" stroke-width="2" stroke-linecap="round" stroke-linejoin="round"/>
    <path d="M3 6V11.172C3.00011 11.7024 3.2109 12.211 3.586 12.586L11.296 20.296C11.748 20.7479 12.3609 21.0017 13 21.0017C13.6391 21.0017 14.252 20.7479 14.704 20.296L20.296 14.704C20.7479 14.252 21.0017 13.6391 21.0017 13C21.0017 12.3609 20.7479 11.748 20.296 11.296L12.586 3.586C12.211 3.2109 11.7024 3.00011 11.172 3H6C5.20435 3 4.44129 3.31607 3.87868 3.87868C3.31607 4.44129 3 5.20435 3 6Z" stroke="currentColor" stroke-width="2" stroke-linecap="round" stroke-linejoin="round"/>
    <path d="M9.29901 15.0674C9.14364 14.912 9.06077 14.6703 9.28174 14.4494L9.49236 14.2388C9.01244 13.6691 8.71205 13.0441 8.69134 12.4917C8.67408 12.1223 8.76384 11.8115 8.971 11.6044C9.24031 11.3351 9.58903 11.38 9.83417 11.6251C9.98609 11.777 10.062 11.9496 10.0931 12.3122C10.1207 12.8991 10.3141 13.3825 10.6628 13.7312C11.1496 14.218 11.6296 14.2629 11.961 13.9315C12.22 13.6725 12.1751 13.3238 11.7849 12.7196L11.2774 11.9289C10.6145 10.9207 10.6421 10.0507 11.3464 9.34633C12.144 8.54876 13.3041 8.59019 14.3226 9.4361L14.5643 9.19441C14.7888 8.96999 15.0235 9.05285 15.1789 9.20822C15.3343 9.36359 15.4137 9.60183 15.1927 9.8228L14.9441 10.0714C15.3446 10.5893 15.5967 11.159 15.6036 11.6631C15.6139 12.0394 15.5138 12.3467 15.3205 12.54C15.0926 12.7679 14.7542 12.7472 14.5367 12.5297C14.3503 12.3432 14.2743 12.1361 14.2501 11.815C14.2363 11.2418 14.0982 10.8828 13.753 10.5375C13.3455 10.1301 12.8553 10.1025 12.5652 10.3925C12.3063 10.6514 12.3408 11.0174 12.693 11.5422L13.2109 12.3294C13.9118 13.3687 13.9083 14.2284 13.2005 14.9362C12.3822 15.7545 11.2118 15.7165 10.1311 14.8637L9.91358 15.0812C9.69261 15.3022 9.45438 15.2228 9.29901 15.0674Z" fill="currentColor"/>
</svg>
