<svg xmlns="http://www.w3.org/2000/svg" width="24" height="24" viewBox="0 0 24 24" fill="none">
    <path d="M4 17H6.397C7.20092 16.9999 7.99298 16.806 8.70601 16.4347C9.41904 16.0634 10.032 15.5256 10.493 14.867L11.007 14.133C11.468 13.4744 12.081 12.9366 12.794 12.5653C13.507 12.194 14.2991 12.0001 15.103 12H16H15.1C14.2957 11.9999 13.5034 11.8057 12.7901 11.4341C12.0769 11.0624 11.4638 10.5241 11.003 9.865L10.493 9.135C10.0321 8.47572 9.41885 7.93739 8.70543 7.56571C7.99201 7.19402 7.19944 6.99996 6.395 7H4" stroke="currentColor" stroke-width="2" stroke-linecap="round" stroke-linejoin="round"/>
    <path d="M17 12C17 12.5304 17.2107 13.0391 17.5858 13.4142C17.9609 13.7893 18.4696 14 19 14C19.5304 14 20.0391 13.7893 20.4142 13.4142C20.7893 13.0391 21 12.5304 21 12C21 11.4696 20.7893 10.9609 20.4142 10.5858C20.0391 10.2107 19.5304 10 19 10C18.4696 10 17.9609 10.2107 17.5858 10.5858C17.2107 10.9609 17 11.4696 17 12Z" stroke="currentColor" stroke-width="2" stroke-linecap="round" stroke-linejoin="round"/>
    <path d="M3 7C3 7.26522 3.10536 7.51957 3.29289 7.70711C3.48043 7.89464 3.73478 8 4 8C4.26522 8 4.51957 7.89464 4.70711 7.70711C4.89464 7.51957 5 7.26522 5 7C5 6.73478 4.89464 6.48043 4.70711 6.29289C4.51957 6.10536 4.26522 6 4 6C3.73478 6 3.48043 6.10536 3.29289 6.29289C3.10536 6.48043 3 6.73478 3 7Z" stroke="currentColor" stroke-width="2" stroke-linecap="round" stroke-linejoin="round"/>
    <path d="M3 17C3 17.2652 3.10536 17.5196 3.29289 17.7071C3.48043 17.8946 3.73478 18 4 18C4.26522 18 4.51957 17.8946 4.70711 17.7071C4.89464 17.5196 5 17.2652 5 17C5 16.7348 4.89464 16.4804 4.70711 16.2929C4.51957 16.1054 4.26522 16 4 16C3.73478 16 3.48043 16.1054 3.29289 16.2929C3.10536 16.4804 3 16.7348 3 17Z" stroke="currentColor" stroke-width="2" stroke-linecap="round" stroke-linejoin="round"/>
</svg>
